Exact Audio Copy V0.99 prebeta 4 from 23. January 2008

EAC 抓取日志文件从18. 二月 2013, 23:50

Various / 名人百集 三、四十年代歌坛名人3

使用驱动器  ：TEAC    CD-W54E   Adapter: 5  ID: 0

读取模式     : 保护
使用精确流   : 是
废除音频缓冲 : 是
使用 C2 指针 : 否

读取偏移校正                   : 0
读取 Lead-In 和 Lead-Out       : 否
用静音填充抓取中丢失偏移的采样 : 是
去除首尾静音块                 : 否
在 CRC 计算中使用了空样本      : 否
已用接口                       : Win NT 及 2000 本地 Win32 接口

所用输出格式 : 内部 WAV 函数
样本格式     : 44.100 Hz;16 Bit;立体声


被抓轨 CD 的 TOC

     音轨 |   开始   |   长度   | 起始扇区 | 结尾扇区 
    --------------------------------------------------
       1  |  0:00.32 |  3:03.15 |      32  |   13771  
       2  |  3:03.47 |  2:36.53 |   13772  |   25524  
       3  |  5:40.25 |  3:17.30 |   25525  |   40329  
       4  |  8:57.55 |  5:50.62 |   40330  |   66641  
       5  | 14:48.42 |  3:10.60 |   66642  |   80951  
       6  | 17:59.27 |  2:31.05 |   80952  |   92281  
       7  | 20:30.32 |  3:05.38 |   92282  |  106194  
       8  | 23:35.70 |  2:45.70 |  106195  |  118639  
       9  | 26:21.65 |  2:46.50 |  118640  |  131139  
      10  | 29:08.40 |  2:55.05 |  131140  |  144269  
      11  | 32:03.45 |  2:40.25 |  144270  |  156294  
      12  | 34:43.70 |  2:57.52 |  156295  |  169621  
      13  | 37:41.47 |  3:03.70 |  169622  |  183416  
      14  | 40:45.42 |  3:07.68 |  183417  |  197509  
      15  | 43:53.35 |  6:10.72 |  197510  |  225331  
      16  | 50:04.32 |  2:33.10 |  225332  |  236816  
      17  | 52:37.42 |  2:51.00 |  236817  |  249641  
      18  | 55:28.42 |  3:00.68 |  249642  |  263209  


范围状态及错误

已选择范围

     文件名 D:\行板如歌原抓\名人百集 三、四十年代歌坛名人3.wav

     峰值电平 91.7 %
     范围质量 100.0 %
     复制 CRC 479722E9
     复制成功

没有错误发生

状态报告结尾
